<svg xmlns="http://www.w3.org/2000/svg" xmlns:xlink="http://www.w3.org/1999/xlink" version="1.1" x="0px" y="0px" viewBox="0 0 90 112.5" enable-background="new 0 0 90 90" xml:space="preserve"><g><path fill="#000000" d="M14.7,41.9c-0.3,0-0.5-0.2-0.6-0.4c-0.1-0.3,0-0.7,0.4-0.8c4.2-1.5,3.6-4.5,3.5-4.6l-1.1-13.7   c0-0.3,0.2-0.6,0.6-0.7c0.3,0,0.6,0.2,0.7,0.6l1.1,13.6l0,0c0,0,1,4-4.3,5.9C14.9,41.9,14.8,41.9,14.7,41.9z"/></g><g><path fill="#000000" d="M12.1,41.9c-0.1,0-0.1,0-0.2,0c-5.3-1.9-4.3-6-4.3-6.1l1.1-13.5c0-0.3,0.3-0.6,0.7-0.6   c0.3,0,0.6,0.3,0.6,0.7L8.8,36c0,0.2-0.7,3.1,3.5,4.7c0.3,0.1,0.5,0.5,0.4,0.8C12.6,41.7,12.4,41.9,12.1,41.9z"/></g><g><path fill="#000000" d="M11.9,35.5c-0.3,0-0.6-0.3-0.6-0.6V20.8c0-0.3,0.3-0.6,0.6-0.6c0.3,0,0.6,0.3,0.6,0.6v14.1   C12.5,35.2,12.2,35.5,11.9,35.5z"/></g><g><path fill="#000000" d="M14.9,35.5c-0.3,0-0.6-0.3-0.6-0.6V20.8c0-0.3,0.3-0.6,0.6-0.6c0.3,0,0.6,0.3,0.6,0.6v14.1   C15.5,35.2,15.2,35.5,14.9,35.5z"/></g><g><path fill="#000000" d="M78,47.8c-0.2,0-0.3-0.1-0.5-0.2c-0.2-0.2-2.2-2.5-2.6-3.7C73.7,40,75.9,30.4,76,30l0.2-1   c1.8-8.7,1.9-9.1,3.5-9c0.4,0,0.8,0.2,1.1,0.5c0.6,0.7,0.5,1.8,0.5,1.9c0,0.3-0.4,0.6-0.7,0.6c-0.3,0-0.6-0.3-0.6-0.7   c0-0.2,0-0.8-0.2-1c0,0-0.1-0.1-0.2-0.1c-0.2,0-0.2,0-0.2,0c-0.4,0.2-1,3-2,8l-0.2,1c0,0.1-2.2,9.7-1.1,13.3   c0.3,0.9,1.8,2.6,2.3,3.3c0.2,0.3,0.2,0.6,0,0.9C78.3,47.8,78.1,47.8,78,47.8z"/></g><g><path fill="#000000" d="M13.4,70.4c-1.1,0-1.9-0.9-1.9-1.9V41.7c0-0.3,0.3-0.6,0.6-0.6s0.6,0.3,0.6,0.6v26.8c0,0.4,0.3,0.7,0.7,0.7   c0.4,0,0.7-0.3,0.7-0.7V41.7c0-0.3,0.3-0.6,0.6-0.6s0.6,0.3,0.6,0.6v26.8C15.4,69.6,14.5,70.4,13.4,70.4z"/></g><g><path fill="#000000" d="M79.3,70.2c-1.1,0-1.9-0.9-1.9-1.9V47.4c0-0.3,0.3-0.6,0.6-0.6c0.3,0,0.6,0.3,0.6,0.6v20.9   c0,0.4,0.3,0.7,0.7,0.7s0.7-0.3,0.7-0.7V23.1c0-0.3,0.3-0.6,0.6-0.6c0.3,0,0.6,0.3,0.6,0.6v45.2C81.3,69.3,80.4,70.2,79.3,70.2z"/></g><g><path fill="#000000" d="M46.2,69.1c-13.2,0-23.9-10.7-23.9-23.9S33,21.2,46.2,21.2S70.1,32,70.1,45.2S59.4,69.1,46.2,69.1z    M46.2,22.5c-12.5,0-22.7,10.2-22.7,22.7s10.2,22.7,22.7,22.7s22.7-10.2,22.7-22.7S58.7,22.5,46.2,22.5z"/></g><g><path fill="#000000" d="M46.2,63.6c-10.1,0-18.4-8.2-18.4-18.4S36,26.8,46.2,26.8c10.1,0,18.4,8.2,18.4,18.4S56.3,63.6,46.2,63.6z    M46.2,28C36.7,28,29,35.7,29,45.2c0,9.5,7.7,17.1,17.2,17.1s17.1-7.7,17.1-17.1C63.3,35.7,55.6,28,46.2,28z"/></g><text x="0" y="105" fill="#000000" font-size="5px" font-weight="bold" font-family="'Helvetica Neue', Helvetica, Arial-Unicode, Arial, Sans-serif">Created by Sergey Novosyolov</text><text x="0" y="110" fill="#000000" font-size="5px" font-weight="bold" font-family="'Helvetica Neue', Helvetica, Arial-Unicode, Arial, Sans-serif">from the Noun Project</text></svg>